Coordinates																			
version=1																			
nRows=30																			
nColumns=20																			
inDegrees=yes																			
																			
Units are S.I. units (second	 meters	 Newtons	 ...)																
If the header above contains a line with 'inDegrees'	 this indicates whether rotational values are in degrees (yes) or radians (no).																		
																			
endheader																			
time	pelvis_tilt	pelvis_list	pelvis_rotation	pelvis_tx	pelvis_ty	pelvis_tz	hip_flexion_r	hip_adduction_r	hip_rotation_r	knee_angle_r	ankle_angle_r	hip_flexion_l	hip_adduction_l	hip_rotation_l	knee_angle_l	ankle_angle_l	lumbar_extension	lumbar_bending	lumbar_rotation
2.81	-0.69562005	7.30003479	98.64137572	-0.03456753	0.94805925	1.65141517	21.80602117	-6.3320932	-26.26555387	-0.47320364	-10.04731733	-25.31172646	-4.38014191	-20.35598216	-7.10370176	-10.49789049	-18.95738598	2.83908727	-8.73294811
2.82	-0.3821944	7.52190502	98.92167876	-0.03305743	0.94655598	1.63522181	21.33597002	-6.08137335	-26.11591796	-1.34052863	-10.20985184	-25.64127912	-5.41710086	-20.36650215	-8.74200217	-11.28805006	-19.03260284	3.3800584	-8.88745752
2.83	-0.05248112	7.79354276	99.16623426	-0.03138192	0.94536084	1.61890279	20.80995862	-5.77861982	-25.93491846	-2.35415644	-10.62410641	-25.85122132	-6.51520082	-20.34041105	-10.66737772	-12.25406904	-19.15549226	3.93338609	-9.00912417
2.84	0.29169187	8.04928264	99.37459952	-0.02953856	0.94440191	1.60253143	20.32174624	-5.44515474	-25.7958633	-3.49432212	-11.28756871	-25.83410717	-7.65575678	-20.22259535	-12.94215562	-13.2532777	-19.22520245	4.50276976	-9.04411449
2.85	0.67703057	8.4471311	99.49856944	-0.02743754	0.94392446	1.58609668	19.65620632	-4.98727634	-25.55439812	-4.57472535	-12.32833077	-25.79228789	-8.85550472	-20.09715512	-15.47549843	-14.57488494	-19.5095928	5.06049693	-9.09676543
2.86	1.09378734	8.79950486	99.57720321	-0.025168	0.94369487	1.56975196	19.08146984	-4.49777453	-25.42299322	-5.70692883	-13.61265472	-25.45405033	-10.08073437	-19.82414301	-18.38557516	-15.85259231	-19.72534916	5.64479064	-9.07624106
2.87	1.53445992	9.10694011	99.62229098	-0.02278849	0.94374468	1.55358029	18.59755554	-3.99663331	-25.41470483	-6.87517005	-15.06104684	-24.8133881	-11.29690977	-19.32720769	-21.63810714	-17.07753883	-19.89592906	6.26500454	-9.0027247
2.88	2.05297611	9.48913965	99.56004754	-0.02015632	0.94422534	1.53754889	18.03158179	-3.35109205	-25.33265009	-7.92822603	-16.73484576	-24.04584197	-12.5512915	-18.82773951	-25.14652122	-18.42552296	-20.18996769	6.86970579	-8.84843481
2.89	2.58395406	9.80113885	99.48675903	-0.01750648	0.94494968	1.52182234	17.56376811	-2.71143376	-25.33570099	-8.99111026	-18.32560121	-22.94773311	-13.74415421	-18.05698009	-28.93811257	-19.63134971	-20.42224023	7.50574576	-8.63972975
2.9	3.1258983	10.08302824	99.40074607	-0.01484137	0.94594623	1.50640529	17.11681328	-2.0517261	-25.35473278	-10.00836544	-19.73362629	-21.5908242	-14.86325957	-17.08196234	-32.93611805	-20.7471407	-20.63513395	8.1256587	-8.43306758
2.91	3.66236223	10.32522742	99.27327991	-0.01214793	0.94717362	1.49131408	16.69824519	-1.37819982	-25.3233478	-10.98791989	-20.93613674	-20.01119807	-15.86477243	-15.99004498	-37.05770865	-21.74116299	-20.85432002	8.72550787	-8.18652132
2.92	4.16207964	10.51885237	99.13013342	-0.00948306	0.94861324	1.4765666	16.29734825	-0.72794921	-25.27070332	-11.92507768	-21.83803102	-18.22561073	-16.71065343	-14.78979722	-41.23258867	-22.57654342	-21.05406711	9.27045522	-7.89897299
2.93	4.58108238	10.61937577	98.96041214	-0.00686795	0.95021956	1.46218713	15.9576732	-0.14915779	-25.12861465	-12.83279225	-22.44378177	-16.23279898	-17.32230594	-13.50631441	-45.37628315	-23.154763	-21.18913391	9.69810016	-7.4696868
2.94	4.9440437	10.73818551	98.80481641	-0.00434549	0.9521486	1.44810708	15.51719357	0.40325473	-25.02327889	-13.64808416	-22.69509531	-14.19091906	-17.76946177	-12.1960525	-49.38096032	-23.61558413	-21.36312463	10.05761111	-7.09057796
2.95	5.22596662	10.83737934	98.63477133	-0.001896	0.95435889	1.434337	15.01399519	0.90730743	-24.88037254	-14.36093776	-22.67755884	-12.1006586	-18.01950552	-10.93608584	-53.19698718	-23.8655363	-21.55928313	10.32432904	-6.77909799
2.96	5.41311161	10.91662297	98.46722278	0.00044697	0.95685798	1.42087189	14.42910035	1.35223495	-24.68349589	-14.93295352	-22.41449595	-9.98299216	-18.06482519	-9.73181404	-56.7770634	-23.85981378	-21.75184291	10.47499692	-6.48864054
2.97	5.49986903	10.97755905	98.30113193	0.00267896	0.95963265	1.40769464	13.75600976	1.73131747	-24.42966937	-15.34889569	-21.95946437	-7.86524842	-17.91224905	-8.62051829	-60.08262217	-23.58738095	-21.94463845	10.50689547	-6.21254418
2.98	5.48703903	11.01968293	98.13947195	0.00478474	0.96264803	1.39479209	12.99647481	2.03667647	-24.13649809	-15.60307954	-21.36391847	-5.76392145	-17.57601711	-7.62469207	-63.0875421	-23.05592628	-22.13596345	10.42378104	-5.95376106
2.99	5.38077264	11.03753667	97.9836008	0.00675465	0.96585389	1.38214566	12.16326437	2.26200268	-23.82684354	-15.69982369	-20.68007856	-3.68551566	-17.07543411	-6.76004499	-65.77291641	-22.2901172	-22.31878181	10.23391378	-5.71848512
3	5.19627362	11.02041149	97.8345605	0.00858112	0.96917257	1.36974302	11.28204999	2.40703821	-23.53718209	-15.6537845	-19.95864688	-1.62326618	-16.43876048	-6.03387299	-68.1288696	-21.34937795	-22.48572408	9.95086208	-5.46991303
3.01	4.9375522	10.98115105	97.69219233	0.01025464	0.97258006	1.35753483	10.34008696	2.47291075	-23.26135456	-15.46123372	-19.21424617	0.39124094	-15.68113808	-5.44889363	-70.13031965	-20.26552146	-22.62111301	9.58868392	-5.27629035
3.02	4.61790663	10.91867141	97.54889662	0.01178017	0.97601275	1.3454966	9.35346994	2.46498718	-23.01384286	-15.13984203	-18.48490841	2.35148728	-14.82875956	-5.01236567	-71.76834664	-19.12256176	-22.72339943	9.15521684	-5.13819736
3.03	4.27466616	10.82050428	97.40262523	0.01317557	0.97936865	1.33360721	8.35628111	2.41400091	-22.81481409	-14.71372795	-17.79097802	4.2782804	-13.93808311	-4.71586521	-73.05349442	-18.01346865	-22.79653271	8.69073171	-5.00051907
3.04	3.91654721	10.70376367	97.24602696	0.014452	0.98262036	1.32181425	7.33542912	2.33395519	-22.64450915	-14.18844244	-17.12910338	6.14014185	-13.03118461	-4.55678914	-73.97598857	-16.99886371	-22.83290808	8.20207816	-4.83937657
3.05	3.54269715	10.58214176	97.05894475	0.01564315	0.9857411	1.31008437	6.29096098	2.22685533	-22.46813265	-13.5893762	-16.51175431	7.90633895	-12.12211398	-4.54923707	-74.53024759	-16.13417852	-22.88369602	7.67278971	-4.74471726
3.06	3.18381996	10.44914467	96.84578312	0.01675599	0.98867326	1.29836979	5.22986849	2.13026505	-22.2507573	-12.90096965	-15.97727208	9.58751353	-11.25372367	-4.66567561	-74.72780346	-15.45971907	-22.85210752	7.18135334	-4.65910106
3.07	2.88128642	10.29551178	96.6156661	0.01781671	0.99130094	1.28669314	4.20069906	2.07430465	-22.07853329	-12.19578722	-15.47661888	11.22135574	-10.48415719	-4.87432108	-74.62100597	-14.92368628	-22.85400625	6.70299429	-4.5159408
3.08	2.5933948	10.1543524	96.33432034	0.01886109	0.99372003	1.27495625	3.14745814	2.03305526	-21.81894545	-11.44001261	-15.06003651	12.7187561	-9.78012693	-5.21750958	-74.16068198	-14.58365044	-22.77381573	6.26027824	-4.40468816
3.09	2.33960295	10.0409823	96.02159892	0.01987886	0.99587115	1.26320547	2.09211896	2.00838709	-21.60237318	-10.71780605	-14.63433458	14.0897541	-9.16331479	-5.64569	-73.40107625	-14.34478621	-22.77720803	5.78089927	-3.81378355
3.1	2.13955941	9.89247222	95.66704576	0.02090211	0.99767932	1.25141517	1.0965414	2.02511234	-21.30410988	-9.99876144	-14.32188395	15.39928094	-8.65469217	-6.15817731	-72.34654904	-14.24788167	-22.6912953	5.41224041	-3.74972603
